<mxfile host="Electron" modified="2024-05-12T20:28:44.988Z" agent="Mozilla/5.0 (Windows NT 10.0; Win64; x64) AppleWebKit/537.36 (KHTML, like Gecko) draw.io/24.2.5 Chrome/120.0.6099.109 Electron/28.1.0 Safari/537.36" etag="qAwb21TbgDH8IuA0MuYS" version="24.2.5" type="device">
  <diagram name="Page-1" id="64BdEkmv2L7eCBl4_PBW">
    <mxGraphModel dx="721" dy="359" grid="1" gridSize="10" guides="1" tooltips="1" connect="1" arrows="1" fold="1" page="1" pageScale="1" pageWidth="1169" pageHeight="827" math="0" shadow="0">
      <root>
        <mxCell id="0" />
        <mxCell id="1" parent="0" />
        <mxCell id="aCbMJu1DOej3NSSiqK0G-1" value="&lt;i&gt;Person&lt;/i&gt;" style="swimlane;fontStyle=1;align=center;verticalAlign=top;childLayout=stackLayout;horizontal=1;startSize=26;horizontalStack=0;resizeParent=1;resizeParentMax=0;resizeLast=0;collapsible=1;marginBottom=0;whiteSpace=wrap;html=1;" parent="1" vertex="1">
          <mxGeometry x="290" y="130" width="240" height="150" as="geometry">
            <mxRectangle x="470" y="170" width="80" height="30" as="alternateBounds" />
          </mxGeometry>
        </mxCell>
        <mxCell id="aCbMJu1DOej3NSSiqK0G-2" value="&lt;font style=&quot;font-size: 13px;&quot;&gt;- id: int&lt;/font&gt;&lt;div style=&quot;font-size: 13px;&quot;&gt;&lt;font style=&quot;font-size: 13px;&quot;&gt;- name: string&lt;/font&gt;&lt;/div&gt;&lt;div style=&quot;font-size: 13px;&quot;&gt;&lt;font style=&quot;font-size: 13px;&quot;&gt;- email: string&lt;/font&gt;&lt;/div&gt;" style="text;strokeColor=none;fillColor=none;align=left;verticalAlign=top;spacingLeft=4;spacingRight=4;overflow=hidden;rotatable=0;points=[[0,0.5],[1,0.5]];portConstraint=eastwest;whiteSpace=wrap;html=1;" parent="aCbMJu1DOej3NSSiqK0G-1" vertex="1">
          <mxGeometry y="26" width="240" height="54" as="geometry" />
        </mxCell>
        <mxCell id="aCbMJu1DOej3NSSiqK0G-3" value="" style="line;strokeWidth=1;fillColor=none;align=left;verticalAlign=middle;spacingTop=-1;spacingLeft=3;spacingRight=3;rotatable=0;labelPosition=right;points=[];portConstraint=eastwest;strokeColor=inherit;" parent="aCbMJu1DOej3NSSiqK0G-1" vertex="1">
          <mxGeometry y="80" width="240" height="8" as="geometry" />
        </mxCell>
        <mxCell id="aCbMJu1DOej3NSSiqK0G-4" value="&lt;font style=&quot;font-size: 13px;&quot;&gt;+ set id():&amp;nbsp;&lt;/font&gt;&lt;div style=&quot;font-size: 13px;&quot;&gt;&lt;font style=&quot;font-size: 13px;&quot;&gt;+ set name():&lt;/font&gt;&lt;/div&gt;&lt;div style=&quot;font-size: 13px;&quot;&gt;&lt;font style=&quot;font-size: 13px;&quot;&gt;+ set email():&lt;/font&gt;&lt;/div&gt;" style="text;strokeColor=none;fillColor=none;align=left;verticalAlign=top;spacingLeft=4;spacingRight=4;overflow=hidden;rotatable=0;points=[[0,0.5],[1,0.5]];portConstraint=eastwest;whiteSpace=wrap;html=1;" parent="aCbMJu1DOej3NSSiqK0G-1" vertex="1">
          <mxGeometry y="88" width="240" height="62" as="geometry" />
        </mxCell>
        <mxCell id="aCbMJu1DOej3NSSiqK0G-13" value="&lt;i&gt;Librarian&lt;/i&gt;" style="swimlane;fontStyle=1;align=center;verticalAlign=top;childLayout=stackLayout;horizontal=1;startSize=26;horizontalStack=0;resizeParent=1;resizeParentMax=0;resizeLast=0;collapsible=1;marginBottom=0;whiteSpace=wrap;html=1;" parent="1" vertex="1">
          <mxGeometry x="30" y="370" width="240" height="150" as="geometry">
            <mxRectangle x="470" y="170" width="80" height="30" as="alternateBounds" />
          </mxGeometry>
        </mxCell>
        <mxCell id="aCbMJu1DOej3NSSiqK0G-14" value="&lt;span style=&quot;font-size: 13px;&quot;&gt;- d&lt;/span&gt;epartment: string&amp;nbsp;" style="text;strokeColor=none;fillColor=none;align=left;verticalAlign=top;spacingLeft=4;spacingRight=4;overflow=hidden;rotatable=0;points=[[0,0.5],[1,0.5]];portConstraint=eastwest;whiteSpace=wrap;html=1;" parent="aCbMJu1DOej3NSSiqK0G-13" vertex="1">
          <mxGeometry y="26" width="240" height="24" as="geometry" />
        </mxCell>
        <mxCell id="aCbMJu1DOej3NSSiqK0G-15" value="" style="line;strokeWidth=1;fillColor=none;align=left;verticalAlign=middle;spacingTop=-1;spacingLeft=3;spacingRight=3;rotatable=0;labelPosition=right;points=[];portConstraint=eastwest;strokeColor=inherit;" parent="aCbMJu1DOej3NSSiqK0G-13" vertex="1">
          <mxGeometry y="50" width="240" height="8" as="geometry" />
        </mxCell>
        <mxCell id="aCbMJu1DOej3NSSiqK0G-16" value="&lt;span style=&quot;font-size: 13px;&quot;&gt;+ set&amp;nbsp;&lt;/span&gt;&lt;span style=&quot;font-size: 13px;&quot;&gt;d&lt;/span&gt;epartment():&lt;span style=&quot;font-size: 13px;&quot;&gt;&amp;nbsp;&lt;/span&gt;&lt;div&gt;&lt;span style=&quot;font-size: 13px;&quot;&gt;+ add_new_book():&lt;/span&gt;&lt;/div&gt;&lt;div&gt;&lt;span style=&quot;font-size: 13px;&quot;&gt;+ add_customer():&lt;/span&gt;&lt;/div&gt;&lt;div&gt;&lt;span style=&quot;font-size: 13px;&quot;&gt;+ update_customer():&lt;/span&gt;&lt;/div&gt;&lt;div&gt;&lt;span style=&quot;font-size: 13px;&quot;&gt;+ update_book():&lt;/span&gt;&lt;/div&gt;&lt;div&gt;&lt;br&gt;&lt;/div&gt;" style="text;strokeColor=none;fillColor=none;align=left;verticalAlign=top;spacingLeft=4;spacingRight=4;overflow=hidden;rotatable=0;points=[[0,0.5],[1,0.5]];portConstraint=eastwest;whiteSpace=wrap;html=1;" parent="aCbMJu1DOej3NSSiqK0G-13" vertex="1">
          <mxGeometry y="58" width="240" height="92" as="geometry" />
        </mxCell>
        <mxCell id="aCbMJu1DOej3NSSiqK0G-17" value="&lt;i&gt;Library Manager&lt;/i&gt;" style="swimlane;fontStyle=1;align=center;verticalAlign=top;childLayout=stackLayout;horizontal=1;startSize=26;horizontalStack=0;resizeParent=1;resizeParentMax=0;resizeLast=0;collapsible=1;marginBottom=0;whiteSpace=wrap;html=1;" parent="1" vertex="1">
          <mxGeometry x="319" y="370" width="240" height="140" as="geometry">
            <mxRectangle x="470" y="170" width="80" height="30" as="alternateBounds" />
          </mxGeometry>
        </mxCell>
        <mxCell id="aCbMJu1DOej3NSSiqK0G-18" value="- permissions: string&lt;div&gt;- role: string&lt;/div&gt;" style="text;strokeColor=none;fillColor=none;align=left;verticalAlign=top;spacingLeft=4;spacingRight=4;overflow=hidden;rotatable=0;points=[[0,0.5],[1,0.5]];portConstraint=eastwest;whiteSpace=wrap;html=1;" parent="aCbMJu1DOej3NSSiqK0G-17" vertex="1">
          <mxGeometry y="26" width="240" height="44" as="geometry" />
        </mxCell>
        <mxCell id="aCbMJu1DOej3NSSiqK0G-19" value="" style="line;strokeWidth=1;fillColor=none;align=left;verticalAlign=middle;spacingTop=-1;spacingLeft=3;spacingRight=3;rotatable=0;labelPosition=right;points=[];portConstraint=eastwest;strokeColor=inherit;" parent="aCbMJu1DOej3NSSiqK0G-17" vertex="1">
          <mxGeometry y="70" width="240" height="8" as="geometry" />
        </mxCell>
        <mxCell id="aCbMJu1DOej3NSSiqK0G-20" value="&lt;span style=&quot;font-size: 13px;&quot;&gt;+ set_permissions():&lt;/span&gt;&lt;div&gt;&lt;span style=&quot;font-size: 13px;&quot;&gt;+ edit_role():&lt;/span&gt;&lt;/div&gt;&lt;div&gt;&lt;span style=&quot;font-size: 13px;&quot;&gt;+ recieve_reports():&lt;/span&gt;&lt;/div&gt;" style="text;strokeColor=none;fillColor=none;align=left;verticalAlign=top;spacingLeft=4;spacingRight=4;overflow=hidden;rotatable=0;points=[[0,0.5],[1,0.5]];portConstraint=eastwest;whiteSpace=wrap;html=1;" parent="aCbMJu1DOej3NSSiqK0G-17" vertex="1">
          <mxGeometry y="78" width="240" height="62" as="geometry" />
        </mxCell>
        <mxCell id="aCbMJu1DOej3NSSiqK0G-35" value="" style="endArrow=block;html=1;rounded=0;jumpSize=6;endFill=0;entryX=0.621;entryY=1.035;entryDx=0;entryDy=0;entryPerimeter=0;strokeWidth=1;" parent="1" edge="1">
          <mxGeometry width="50" height="50" relative="1" as="geometry">
            <mxPoint x="424.00000000000006" y="370" as="sourcePoint" />
            <mxPoint x="424.46" y="282.1700000000001" as="targetPoint" />
          </mxGeometry>
        </mxCell>
        <mxCell id="aCbMJu1DOej3NSSiqK0G-38" style="edgeStyle=orthogonalEdgeStyle;rounded=0;orthogonalLoop=1;jettySize=auto;html=1;entryX=0.126;entryY=1.024;entryDx=0;entryDy=0;entryPerimeter=0;endArrow=block;endFill=0;" parent="1" source="aCbMJu1DOej3NSSiqK0G-13" target="aCbMJu1DOej3NSSiqK0G-4" edge="1">
          <mxGeometry relative="1" as="geometry">
            <Array as="points">
              <mxPoint x="150" y="320" />
              <mxPoint x="320" y="320" />
            </Array>
          </mxGeometry>
        </mxCell>
        <mxCell id="aCbMJu1DOej3NSSiqK0G-39" style="edgeStyle=orthogonalEdgeStyle;rounded=0;orthogonalLoop=1;jettySize=auto;html=1;entryX=0.857;entryY=1.067;entryDx=0;entryDy=0;entryPerimeter=0;endArrow=block;endFill=0;" parent="1" target="aCbMJu1DOej3NSSiqK0G-4" edge="1">
          <mxGeometry relative="1" as="geometry">
            <mxPoint x="720" y="370" as="sourcePoint" />
            <Array as="points">
              <mxPoint x="720" y="320" />
              <mxPoint x="496" y="320" />
            </Array>
          </mxGeometry>
        </mxCell>
        <mxCell id="aCbMJu1DOej3NSSiqK0G-41" value="&lt;i&gt;Customer&lt;/i&gt;" style="swimlane;fontStyle=1;align=center;verticalAlign=top;childLayout=stackLayout;horizontal=1;startSize=26;horizontalStack=0;resizeParent=1;resizeParentMax=0;resizeLast=0;collapsible=1;marginBottom=0;whiteSpace=wrap;html=1;" parent="1" vertex="1">
          <mxGeometry x="580" y="370" width="240" height="140" as="geometry">
            <mxRectangle x="470" y="170" width="80" height="30" as="alternateBounds" />
          </mxGeometry>
        </mxCell>
        <mxCell id="aCbMJu1DOej3NSSiqK0G-42" value="&lt;span style=&quot;font-size: 13px;&quot;&gt;- favourite_books: list&lt;/span&gt;" style="text;strokeColor=none;fillColor=none;align=left;verticalAlign=top;spacingLeft=4;spacingRight=4;overflow=hidden;rotatable=0;points=[[0,0.5],[1,0.5]];portConstraint=eastwest;whiteSpace=wrap;html=1;" parent="aCbMJu1DOej3NSSiqK0G-41" vertex="1">
          <mxGeometry y="26" width="240" height="24" as="geometry" />
        </mxCell>
        <mxCell id="aCbMJu1DOej3NSSiqK0G-43" value="" style="line;strokeWidth=1;fillColor=none;align=left;verticalAlign=middle;spacingTop=-1;spacingLeft=3;spacingRight=3;rotatable=0;labelPosition=right;points=[];portConstraint=eastwest;strokeColor=inherit;" parent="aCbMJu1DOej3NSSiqK0G-41" vertex="1">
          <mxGeometry y="50" width="240" height="8" as="geometry" />
        </mxCell>
        <mxCell id="aCbMJu1DOej3NSSiqK0G-44" value="&lt;span style=&quot;font-size: 13px;&quot;&gt;+ order_book():&lt;/span&gt;&lt;div&gt;&lt;span style=&quot;font-size: 13px;&quot;&gt;+ reserve_book():&lt;/span&gt;&lt;/div&gt;&lt;div&gt;&lt;span style=&quot;font-size: 13px;&quot;&gt;+ return_book():&lt;/span&gt;&lt;/div&gt;&lt;div&gt;&lt;span style=&quot;font-size: 13px;&quot;&gt;+ edit_favourite_books():&lt;/span&gt;&lt;/div&gt;" style="text;strokeColor=none;fillColor=none;align=left;verticalAlign=top;spacingLeft=4;spacingRight=4;overflow=hidden;rotatable=0;points=[[0,0.5],[1,0.5]];portConstraint=eastwest;whiteSpace=wrap;html=1;" parent="aCbMJu1DOej3NSSiqK0G-41" vertex="1">
          <mxGeometry y="58" width="240" height="82" as="geometry" />
        </mxCell>
        <mxCell id="aCbMJu1DOej3NSSiqK0G-45" value="&lt;i&gt;Book&lt;/i&gt;" style="swimlane;fontStyle=1;align=center;verticalAlign=top;childLayout=stackLayout;horizontal=1;startSize=26;horizontalStack=0;resizeParent=1;resizeParentMax=0;resizeLast=0;collapsible=1;marginBottom=0;whiteSpace=wrap;html=1;" parent="1" vertex="1">
          <mxGeometry x="840" y="130" width="240" height="240" as="geometry">
            <mxRectangle x="470" y="170" width="80" height="30" as="alternateBounds" />
          </mxGeometry>
        </mxCell>
        <mxCell id="aCbMJu1DOej3NSSiqK0G-46" value="&lt;font style=&quot;font-size: 13px;&quot;&gt;- id: int&lt;/font&gt;&lt;div style=&quot;font-size: 13px;&quot;&gt;&lt;font style=&quot;font-size: 13px;&quot;&gt;- name: string&lt;/font&gt;&lt;/div&gt;&lt;div style=&quot;font-size: 13px;&quot;&gt;&lt;font style=&quot;font-size: 13px;&quot;&gt;- author: string&lt;/font&gt;&lt;/div&gt;&lt;div style=&quot;font-size: 13px;&quot;&gt;&lt;font style=&quot;font-size: 13px;&quot;&gt;- availability: bool&lt;/font&gt;&lt;/div&gt;&lt;div style=&quot;font-size: 13px;&quot;&gt;&lt;span style=&quot;background-color: initial;&quot;&gt;- c&lt;/span&gt;ategory&lt;span style=&quot;background-color: initial; font-size: 12px;&quot;&gt;: string&amp;nbsp;&lt;/span&gt;&lt;/div&gt;&lt;div style=&quot;font-size: 13px;&quot;&gt;&lt;span style=&quot;background-color: initial; font-size: 12px;&quot;&gt;- p&lt;/span&gt;&lt;span style=&quot;background-color: initial; font-size: 12px;&quot;&gt;ublication date: date&lt;/span&gt;&lt;/div&gt;" style="text;strokeColor=none;fillColor=none;align=left;verticalAlign=top;spacingLeft=4;spacingRight=4;overflow=hidden;rotatable=0;points=[[0,0.5],[1,0.5]];portConstraint=eastwest;whiteSpace=wrap;html=1;" parent="aCbMJu1DOej3NSSiqK0G-45" vertex="1">
          <mxGeometry y="26" width="240" height="104" as="geometry" />
        </mxCell>
        <mxCell id="aCbMJu1DOej3NSSiqK0G-47" value="" style="line;strokeWidth=1;fillColor=none;align=left;verticalAlign=middle;spacingTop=-1;spacingLeft=3;spacingRight=3;rotatable=0;labelPosition=right;points=[];portConstraint=eastwest;strokeColor=inherit;" parent="aCbMJu1DOej3NSSiqK0G-45" vertex="1">
          <mxGeometry y="130" width="240" height="8" as="geometry" />
        </mxCell>
        <mxCell id="aCbMJu1DOej3NSSiqK0G-48" value="&lt;font style=&quot;font-size: 13px;&quot;&gt;+ get id():&amp;nbsp;&lt;/font&gt;&lt;div style=&quot;font-size: 13px;&quot;&gt;&lt;font style=&quot;font-size: 13px;&quot;&gt;+ get name():&lt;/font&gt;&lt;/div&gt;&lt;div style=&quot;font-size: 13px;&quot;&gt;&lt;font style=&quot;font-size: 13px;&quot;&gt;+ get author():&lt;/font&gt;&lt;/div&gt;&lt;div style=&quot;font-size: 13px;&quot;&gt;&lt;font style=&quot;font-size: 13px;&quot;&gt;+ get&amp;nbsp;&lt;/font&gt;&lt;span style=&quot;background-color: initial;&quot;&gt;availability():&lt;/span&gt;&lt;/div&gt;&lt;div style=&quot;font-size: 13px;&quot;&gt;&lt;span style=&quot;background-color: initial;&quot;&gt;+ get c&lt;/span&gt;ategory&lt;span style=&quot;background-color: initial; font-size: 12px;&quot;&gt;():&lt;/span&gt;&lt;/div&gt;&lt;div style=&quot;font-size: 13px;&quot;&gt;&lt;span style=&quot;background-color: initial; font-size: 12px;&quot;&gt;+ get p&lt;/span&gt;&lt;span style=&quot;background-color: initial; font-size: 12px;&quot;&gt;ublication date():&lt;/span&gt;&lt;/div&gt;" style="text;strokeColor=none;fillColor=none;align=left;verticalAlign=top;spacingLeft=4;spacingRight=4;overflow=hidden;rotatable=0;points=[[0,0.5],[1,0.5]];portConstraint=eastwest;whiteSpace=wrap;html=1;" parent="aCbMJu1DOej3NSSiqK0G-45" vertex="1">
          <mxGeometry y="138" width="240" height="102" as="geometry" />
        </mxCell>
        <mxCell id="aCbMJu1DOej3NSSiqK0G-49" value="&lt;i&gt;Order&lt;/i&gt;" style="swimlane;fontStyle=1;align=center;verticalAlign=top;childLayout=stackLayout;horizontal=1;startSize=26;horizontalStack=0;resizeParent=1;resizeParentMax=0;resizeLast=0;collapsible=1;marginBottom=0;whiteSpace=wrap;html=1;" parent="1" vertex="1">
          <mxGeometry x="790" y="600" width="240" height="140" as="geometry">
            <mxRectangle x="470" y="170" width="80" height="30" as="alternateBounds" />
          </mxGeometry>
        </mxCell>
        <mxCell id="aCbMJu1DOej3NSSiqK0G-50" value="&lt;span style=&quot;font-size: 13px;&quot;&gt;- order_id: int&lt;/span&gt;&lt;div&gt;&lt;span style=&quot;font-size: 13px;&quot;&gt;- customer_name: string&lt;/span&gt;&lt;/div&gt;&lt;div&gt;&lt;span style=&quot;font-size: 13px;&quot;&gt;-customer_id: int&lt;/span&gt;&lt;/div&gt;&lt;div&gt;&lt;span style=&quot;font-size: 13px;&quot;&gt;- status: string&amp;nbsp;&lt;/span&gt;&lt;/div&gt;" style="text;strokeColor=none;fillColor=none;align=left;verticalAlign=top;spacingLeft=4;spacingRight=4;overflow=hidden;rotatable=0;points=[[0,0.5],[1,0.5]];portConstraint=eastwest;whiteSpace=wrap;html=1;" parent="aCbMJu1DOej3NSSiqK0G-49" vertex="1">
          <mxGeometry y="26" width="240" height="74" as="geometry" />
        </mxCell>
        <mxCell id="aCbMJu1DOej3NSSiqK0G-51" value="" style="line;strokeWidth=1;fillColor=none;align=left;verticalAlign=middle;spacingTop=-1;spacingLeft=3;spacingRight=3;rotatable=0;labelPosition=right;points=[];portConstraint=eastwest;strokeColor=inherit;" parent="aCbMJu1DOej3NSSiqK0G-49" vertex="1">
          <mxGeometry y="100" width="240" height="8" as="geometry" />
        </mxCell>
        <mxCell id="aCbMJu1DOej3NSSiqK0G-52" value="&lt;span style=&quot;font-size: 13px;&quot;&gt;+ place_order():&lt;/span&gt;" style="text;strokeColor=none;fillColor=none;align=left;verticalAlign=top;spacingLeft=4;spacingRight=4;overflow=hidden;rotatable=0;points=[[0,0.5],[1,0.5]];portConstraint=eastwest;whiteSpace=wrap;html=1;" parent="aCbMJu1DOej3NSSiqK0G-49" vertex="1">
          <mxGeometry y="108" width="240" height="32" as="geometry" />
        </mxCell>
        <mxCell id="aCbMJu1DOej3NSSiqK0G-57" value="" style="endArrow=diamondThin;startArrow=none;endFill=1;startFill=0;endSize=8;html=1;labelBackgroundColor=none;rounded=0;" parent="1" edge="1">
          <mxGeometry width="160" relative="1" as="geometry">
            <mxPoint x="790" y="650" as="sourcePoint" />
            <mxPoint x="740" y="510" as="targetPoint" />
            <Array as="points">
              <mxPoint x="740" y="650" />
            </Array>
          </mxGeometry>
        </mxCell>
        <mxCell id="aCbMJu1DOej3NSSiqK0G-66" value="" style="endArrow=none;html=1;rounded=0;entryX=0.961;entryY=1.037;entryDx=0;entryDy=0;entryPerimeter=0;" parent="1" edge="1">
          <mxGeometry width="50" height="50" relative="1" as="geometry">
            <mxPoint x="820" y="447" as="sourcePoint" />
            <mxPoint x="1070.6399999999999" y="370.774" as="targetPoint" />
            <Array as="points">
              <mxPoint x="860" y="447" />
              <mxPoint x="970" y="447" />
              <mxPoint x="1030" y="447" />
              <mxPoint x="1060" y="447" />
              <mxPoint x="1070" y="447" />
            </Array>
          </mxGeometry>
        </mxCell>
        <mxCell id="aCbMJu1DOej3NSSiqK0G-74" value="return" style="edgeLabel;html=1;align=center;verticalAlign=middle;resizable=0;points=[];fontSize=12;" parent="aCbMJu1DOej3NSSiqK0G-66" vertex="1" connectable="0">
          <mxGeometry x="-0.8752" relative="1" as="geometry">
            <mxPoint x="4" y="-1" as="offset" />
          </mxGeometry>
        </mxCell>
        <mxCell id="aCbMJu1DOej3NSSiqK0G-68" value="" style="endArrow=none;html=1;rounded=0;entryX=0.751;entryY=1.004;entryDx=0;entryDy=0;entryPerimeter=0;" parent="1" target="aCbMJu1DOej3NSSiqK0G-48" edge="1">
          <mxGeometry width="50" height="50" relative="1" as="geometry">
            <mxPoint x="820" y="430" as="sourcePoint" />
            <mxPoint x="900" y="430" as="targetPoint" />
            <Array as="points">
              <mxPoint x="920" y="430" />
              <mxPoint x="980" y="430" />
              <mxPoint x="1010" y="430" />
              <mxPoint x="1020" y="430" />
            </Array>
          </mxGeometry>
        </mxCell>
        <mxCell id="aCbMJu1DOej3NSSiqK0G-73" value="reserve" style="edgeLabel;html=1;align=center;verticalAlign=middle;resizable=0;points=[];fontSize=12;" parent="aCbMJu1DOej3NSSiqK0G-68" vertex="1" connectable="0">
          <mxGeometry x="-0.8618" y="-1" relative="1" as="geometry">
            <mxPoint x="11" y="-3" as="offset" />
          </mxGeometry>
        </mxCell>
        <mxCell id="aCbMJu1DOej3NSSiqK0G-69" value="" style="endArrow=none;html=1;rounded=0;" parent="1" edge="1">
          <mxGeometry width="50" height="50" relative="1" as="geometry">
            <mxPoint x="820" y="414.7" as="sourcePoint" />
            <mxPoint x="900" y="370" as="targetPoint" />
            <Array as="points">
              <mxPoint x="870" y="415" />
              <mxPoint x="900" y="415" />
            </Array>
          </mxGeometry>
        </mxCell>
        <mxCell id="aCbMJu1DOej3NSSiqK0G-70" value="order" style="edgeLabel;html=1;align=center;verticalAlign=middle;resizable=0;points=[];fontSize=12;" parent="aCbMJu1DOej3NSSiqK0G-69" vertex="1" connectable="0">
          <mxGeometry x="-0.9168" y="3" relative="1" as="geometry">
            <mxPoint x="17" y="3" as="offset" />
          </mxGeometry>
        </mxCell>
        <mxCell id="aCbMJu1DOej3NSSiqK0G-75" value="" style="endArrow=none;html=1;rounded=0;entryX=-0.021;entryY=0.381;entryDx=0;entryDy=0;entryPerimeter=0;" parent="1" target="eSUS-dn6l8ipVDEC-dCX-3" edge="1">
          <mxGeometry width="50" height="50" relative="1" as="geometry">
            <mxPoint x="350" y="510" as="sourcePoint" />
            <mxPoint x="440" y="630" as="targetPoint" />
            <Array as="points">
              <mxPoint x="349" y="644" />
            </Array>
          </mxGeometry>
        </mxCell>
        <mxCell id="aCbMJu1DOej3NSSiqK0G-76" value="recieve" style="edgeLabel;html=1;align=center;verticalAlign=middle;resizable=0;points=[];container=0;" parent="aCbMJu1DOej3NSSiqK0G-75" vertex="1" connectable="0">
          <mxGeometry x="-0.051" relative="1" as="geometry">
            <mxPoint x="15" y="9" as="offset" />
          </mxGeometry>
        </mxCell>
        <mxCell id="eSUS-dn6l8ipVDEC-dCX-2" value="&lt;i&gt;Reports&lt;/i&gt;" style="swimlane;fontStyle=1;align=center;verticalAlign=top;childLayout=stackLayout;horizontal=1;startSize=26;horizontalStack=0;resizeParent=1;resizeParentMax=0;resizeLast=0;collapsible=1;marginBottom=0;whiteSpace=wrap;html=1;" parent="1" vertex="1">
          <mxGeometry x="480" y="590" width="240" height="140" as="geometry">
            <mxRectangle x="470" y="170" width="80" height="30" as="alternateBounds" />
          </mxGeometry>
        </mxCell>
        <mxCell id="eSUS-dn6l8ipVDEC-dCX-3" value="&lt;span style=&quot;font-size: 13px;&quot;&gt;- books info:string&lt;/span&gt;&lt;div&gt;&lt;span style=&quot;font-size: 13px;&quot;&gt;- customers info: string&amp;nbsp;&lt;/span&gt;&lt;/div&gt;&lt;div&gt;&lt;span style=&quot;font-size: 13px;&quot;&gt;- reservations info:string&amp;nbsp;&lt;/span&gt;&lt;/div&gt;" style="text;strokeColor=none;fillColor=none;align=left;verticalAlign=top;spacingLeft=4;spacingRight=4;overflow=hidden;rotatable=0;points=[[0,0.5],[1,0.5]];portConstraint=eastwest;whiteSpace=wrap;html=1;" parent="eSUS-dn6l8ipVDEC-dCX-2" vertex="1">
          <mxGeometry y="26" width="240" height="74" as="geometry" />
        </mxCell>
        <mxCell id="eSUS-dn6l8ipVDEC-dCX-4" value="" style="line;strokeWidth=1;fillColor=none;align=left;verticalAlign=middle;spacingTop=-1;spacingLeft=3;spacingRight=3;rotatable=0;labelPosition=right;points=[];portConstraint=eastwest;strokeColor=inherit;" parent="eSUS-dn6l8ipVDEC-dCX-2" vertex="1">
          <mxGeometry y="100" width="240" height="8" as="geometry" />
        </mxCell>
        <mxCell id="eSUS-dn6l8ipVDEC-dCX-5" value="&lt;span style=&quot;font-size: 13px;&quot;&gt;+ send to manager():&lt;/span&gt;" style="text;strokeColor=none;fillColor=none;align=left;verticalAlign=top;spacingLeft=4;spacingRight=4;overflow=hidden;rotatable=0;points=[[0,0.5],[1,0.5]];portConstraint=eastwest;whiteSpace=wrap;html=1;" parent="eSUS-dn6l8ipVDEC-dCX-2" vertex="1">
          <mxGeometry y="108" width="240" height="32" as="geometry" />
        </mxCell>
        <mxCell id="eSUS-dn6l8ipVDEC-dCX-8" value="" style="endArrow=none;html=1;rounded=0;" parent="1" edge="1">
          <mxGeometry width="50" height="50" relative="1" as="geometry">
            <mxPoint x="190" y="520" as="sourcePoint" />
            <mxPoint x="480" y="720" as="targetPoint" />
            <Array as="points">
              <mxPoint x="190" y="720" />
              <mxPoint x="340" y="720" />
            </Array>
          </mxGeometry>
        </mxCell>
        <mxCell id="eSUS-dn6l8ipVDEC-dCX-9" value="deliver" style="edgeLabel;html=1;align=center;verticalAlign=middle;resizable=0;points=[];" parent="eSUS-dn6l8ipVDEC-dCX-8" vertex="1" connectable="0">
          <mxGeometry x="-0.1488" y="1" relative="1" as="geometry">
            <mxPoint x="6" y="2" as="offset" />
          </mxGeometry>
        </mxCell>
        <mxCell id="eSUS-dn6l8ipVDEC-dCX-11" value="" style="endArrow=diamondThin;startArrow=none;endFill=1;startFill=0;endSize=8;html=1;labelBackgroundColor=none;rounded=0;exitX=-0.012;exitY=0.849;exitDx=0;exitDy=0;exitPerimeter=0;" parent="1" source="eSUS-dn6l8ipVDEC-dCX-3" edge="1">
          <mxGeometry width="160" relative="1" as="geometry">
            <mxPoint x="460" y="660" as="sourcePoint" />
            <mxPoint x="220" y="520" as="targetPoint" />
            <Array as="points">
              <mxPoint x="220" y="680" />
            </Array>
          </mxGeometry>
        </mxCell>
        <mxCell id="eSUS-dn6l8ipVDEC-dCX-12" value="" style="endArrow=none;html=1;rounded=0;entryX=0.335;entryY=-0.004;entryDx=0;entryDy=0;entryPerimeter=0;" parent="1" target="aCbMJu1DOej3NSSiqK0G-45" edge="1">
          <mxGeometry width="50" height="50" relative="1" as="geometry">
            <mxPoint x="60" y="370" as="sourcePoint" />
            <mxPoint x="920" y="120" as="targetPoint" />
            <Array as="points">
              <mxPoint x="60" y="40" />
              <mxPoint x="340" y="40" />
              <mxPoint x="580" y="40" />
              <mxPoint x="750" y="40" />
              <mxPoint x="840" y="40" />
              <mxPoint x="920" y="40" />
            </Array>
          </mxGeometry>
        </mxCell>
        <mxCell id="eSUS-dn6l8ipVDEC-dCX-13" value="Add_new_book/Update_book" style="edgeLabel;html=1;align=center;verticalAlign=middle;resizable=0;points=[];" parent="eSUS-dn6l8ipVDEC-dCX-12" vertex="1" connectable="0">
          <mxGeometry x="0.1946" y="-3" relative="1" as="geometry">
            <mxPoint y="-3" as="offset" />
          </mxGeometry>
        </mxCell>
        <mxCell id="eSUS-dn6l8ipVDEC-dCX-14" value="" style="endArrow=none;html=1;rounded=0;entryX=0.716;entryY=-0.001;entryDx=0;entryDy=0;entryPerimeter=0;" parent="1" target="aCbMJu1DOej3NSSiqK0G-41" edge="1">
          <mxGeometry width="50" height="50" relative="1" as="geometry">
            <mxPoint x="100" y="370" as="sourcePoint" />
            <mxPoint x="760" y="360" as="targetPoint" />
            <Array as="points">
              <mxPoint x="100" y="80" />
              <mxPoint x="590" y="80" />
              <mxPoint x="750" y="80" />
            </Array>
          </mxGeometry>
        </mxCell>
        <mxCell id="eSUS-dn6l8ipVDEC-dCX-15" value="Add_new_customer/Update_customer_info" style="edgeLabel;html=1;align=center;verticalAlign=middle;resizable=0;points=[];" parent="eSUS-dn6l8ipVDEC-dCX-14" vertex="1" connectable="0">
          <mxGeometry x="0.0189" y="-4" relative="1" as="geometry">
            <mxPoint x="-16" y="-4" as="offset" />
          </mxGeometry>
        </mxCell>
        <mxCell id="eSUS-dn6l8ipVDEC-dCX-18" value="1" style="text;html=1;align=center;verticalAlign=middle;resizable=0;points=[];autosize=1;strokeColor=none;fillColor=none;" parent="1" vertex="1">
          <mxGeometry x="734" y="508" width="30" height="30" as="geometry" />
        </mxCell>
        <mxCell id="eSUS-dn6l8ipVDEC-dCX-19" value="1..*" style="text;html=1;align=center;verticalAlign=middle;resizable=0;points=[];autosize=1;strokeColor=none;fillColor=none;" parent="1" vertex="1">
          <mxGeometry x="754" y="623" width="40" height="30" as="geometry" />
        </mxCell>
        <mxCell id="eSUS-dn6l8ipVDEC-dCX-20" value="1..*" style="text;html=1;align=center;verticalAlign=middle;resizable=0;points=[];autosize=1;strokeColor=none;fillColor=none;" parent="1" vertex="1">
          <mxGeometry x="441" y="614" width="40" height="30" as="geometry" />
        </mxCell>
        <mxCell id="eSUS-dn6l8ipVDEC-dCX-21" value="1" style="text;html=1;align=center;verticalAlign=middle;resizable=0;points=[];autosize=1;strokeColor=none;fillColor=none;" parent="1" vertex="1">
          <mxGeometry x="349" y="511" width="30" height="30" as="geometry" />
        </mxCell>
        <mxCell id="eSUS-dn6l8ipVDEC-dCX-22" value="1" style="text;html=1;align=center;verticalAlign=middle;resizable=0;points=[];autosize=1;strokeColor=none;fillColor=none;" parent="1" vertex="1">
          <mxGeometry x="814" y="374" width="30" height="30" as="geometry" />
        </mxCell>
        <mxCell id="eSUS-dn6l8ipVDEC-dCX-25" value="0..*" style="text;html=1;align=center;verticalAlign=middle;resizable=0;points=[];autosize=1;strokeColor=none;fillColor=none;" parent="1" vertex="1">
          <mxGeometry x="868" y="362" width="40" height="30" as="geometry" />
        </mxCell>
        <mxCell id="eSUS-dn6l8ipVDEC-dCX-26" value="0..*" style="text;html=1;align=center;verticalAlign=middle;resizable=0;points=[];autosize=1;strokeColor=none;fillColor=none;" parent="1" vertex="1">
          <mxGeometry x="983" y="368" width="40" height="30" as="geometry" />
        </mxCell>
        <mxCell id="eSUS-dn6l8ipVDEC-dCX-27" value="1..*" style="text;html=1;align=center;verticalAlign=middle;resizable=0;points=[];autosize=1;strokeColor=none;fillColor=none;" parent="1" vertex="1">
          <mxGeometry x="1038" y="367" width="40" height="30" as="geometry" />
        </mxCell>
        <mxCell id="eSUS-dn6l8ipVDEC-dCX-28" value="1..*" style="text;html=1;align=center;verticalAlign=middle;resizable=0;points=[];autosize=1;strokeColor=none;fillColor=none;" parent="1" vertex="1">
          <mxGeometry x="442" y="691" width="40" height="30" as="geometry" />
        </mxCell>
        <mxCell id="eSUS-dn6l8ipVDEC-dCX-29" value="1" style="text;html=1;align=center;verticalAlign=middle;resizable=0;points=[];autosize=1;strokeColor=none;fillColor=none;" parent="1" vertex="1">
          <mxGeometry x="162" y="517" width="30" height="30" as="geometry" />
        </mxCell>
        <mxCell id="eSUS-dn6l8ipVDEC-dCX-30" value="1" style="text;html=1;align=center;verticalAlign=middle;resizable=0;points=[];autosize=1;strokeColor=none;fillColor=none;" parent="1" vertex="1">
          <mxGeometry x="20" y="344" width="30" height="30" as="geometry" />
        </mxCell>
        <mxCell id="eSUS-dn6l8ipVDEC-dCX-31" value="0..*" style="text;html=1;align=center;verticalAlign=middle;resizable=0;points=[];autosize=1;strokeColor=none;fillColor=none;" parent="1" vertex="1">
          <mxGeometry x="752" y="341" width="40" height="30" as="geometry" />
        </mxCell>
        <mxCell id="eSUS-dn6l8ipVDEC-dCX-32" value="0..*" style="text;html=1;align=center;verticalAlign=middle;resizable=0;points=[];autosize=1;strokeColor=none;fillColor=none;" parent="1" vertex="1">
          <mxGeometry x="914" y="106" width="40" height="30" as="geometry" />
        </mxCell>
      </root>
    </mxGraphModel>
  </diagram>
</mxfile>
